<svg width="248" height="248" fill="none" xmlns="http://www.w3.org/2000/svg"><path d="M243.906 114.117c5.459 5.458 5.459 14.308 0 19.766L133.883 243.906c-5.458 5.459-14.308 5.459-19.766 0L90.62 220.41c-5.458-5.459-5.458-14.309 0-19.767l66.76-66.76c5.458-5.458 5.458-14.308 0-19.766l-66.76-66.76c-5.458-5.458-5.458-14.308 0-19.767l23.497-23.496c5.458-5.459 14.308-5.459 19.766 0l110.023 110.023z" fill="#000"/><path d="M46.904 175.921c5.458 5.459 14.308 5.459 19.767 0l42.81-42.81c5.459-5.459 5.459-14.309 0-19.767l-42.81-42.81c-5.459-5.459-14.309-5.459-19.767 0l-42.81 42.81c-5.459 5.458-5.459 14.308 0 19.767l42.81 42.81z" fill="#000"/></svg>