<svg width="248" height="248"
    xmlns="http://www.w3.org/2000/svg">
    <path d="M244 114.1a14 14 0 0 1 0 19.8l-110.1 110a14 14 0 0 1-19.8 0l-23.5-23.5a14 14 0 0 1 0-19.8l66.8-66.7a14 14 0 0 0 0-19.8L90.6 47.4a14 14 0 0 1 0-19.8L114.1 4A14 14 0 0 1 134 4l110 110Z" />
    <path d="M46.9 176a14 14 0 0 0 19.8 0l42.8-42.9a14 14 0 0 0 0-19.8L66.7 70.5a14 14 0 0 0-19.8 0L4.1 113.3a14 14 0 0 0 0 19.8L46.9 176Z" />

    <style>
    path { fill: #000; }
    @media (prefers-color-scheme: dark) {
      path { fill: #fff; }
    }
    </style>
</svg>
