<svg width="615" height="168" fill="none" xmlns="http://www.w3.org/2000/svg"><path d="M251.109 123l-26.432-34.72V123h-19.152V44.376h19.152v34.496l26.208-34.496h22.512l-30.464 38.528L274.517 123h-23.408zm60.958.896c-6.123 0-11.648-1.307-16.576-3.92-4.854-2.613-8.699-6.347-11.536-11.2-2.763-4.853-4.144-10.528-4.144-17.024 0-6.421 1.418-12.059 4.256-16.912 2.837-4.928 6.72-8.699 11.648-11.312 4.928-2.613 10.453-3.92 16.576-3.92 6.122 0 11.648 1.307 16.576 3.92 4.928 2.613 8.81 6.384 11.648 11.312 2.837 4.853 4.256 10.49 4.256 16.912 0 6.421-1.456 12.096-4.368 17.024-2.838 4.853-6.758 8.587-11.76 11.2-4.928 2.613-10.454 3.92-16.576 3.92zm0-16.576c3.658 0 6.757-1.344 9.296-4.032 2.613-2.688 3.92-6.533 3.92-11.536 0-5.003-1.27-8.848-3.808-11.536-2.464-2.688-5.526-4.032-9.184-4.032-3.734 0-6.832 1.344-9.296 4.032-2.464 2.613-3.696 6.459-3.696 11.536 0 5.003 1.194 8.848 3.584 11.536 2.464 2.688 5.525 4.032 9.184 4.032zm122.608-47.488c7.765 0 13.925 2.352 18.48 7.056 4.629 4.704 6.944 11.237 6.944 19.6V123h-19.04V89.064c0-4.032-1.083-7.13-3.248-9.296-2.091-2.24-5.003-3.36-8.736-3.36-3.733 0-6.683 1.12-8.848 3.36-2.091 2.165-3.136 5.264-3.136 9.296V123h-19.04V89.064c0-4.032-1.083-7.13-3.248-9.296-2.091-2.24-5.003-3.36-8.736-3.36-3.733 0-6.683 1.12-8.848 3.36-2.091 2.165-3.136 5.264-3.136 9.296V123h-19.152V60.504h19.152v7.84c1.941-2.613 4.48-4.667 7.616-6.16 3.136-1.568 6.683-2.352 10.64-2.352 4.704 0 8.885 1.008 12.544 3.024 3.733 2.016 6.645 4.89 8.736 8.624 2.165-3.435 5.115-6.235 8.848-8.4 3.733-2.165 7.803-3.248 12.208-3.248zm57.971 9.52c1.792-2.912 4.368-5.264 7.728-7.056 3.36-1.792 7.205-2.688 11.536-2.688 5.152 0 9.818 1.307 14 3.92 4.181 2.613 7.466 6.347 9.856 11.2 2.464 4.853 3.696 10.49 3.696 16.912 0 6.421-1.232 12.096-3.696 17.024-2.39 4.853-5.675 8.624-9.856 11.312-4.182 2.613-8.848 3.92-14 3.92-4.406 0-8.251-.859-11.536-2.576-3.286-1.792-5.862-4.144-7.728-7.056V123h-19.152V40.12h19.152v29.232zm27.328 22.288c0-4.779-1.344-8.512-4.032-11.2-2.614-2.763-5.862-4.144-9.744-4.144-3.808 0-7.056 1.381-9.744 4.144-2.614 2.763-3.92 6.533-3.92 11.312 0 4.779 1.306 8.549 3.92 11.312 2.688 2.763 5.936 4.144 9.744 4.144s7.056-1.381 9.744-4.144c2.688-2.837 4.032-6.645 4.032-11.424zm57.983 32.256c-6.122 0-11.648-1.307-16.576-3.92-4.853-2.613-8.698-6.347-11.536-11.2-2.762-4.853-4.144-10.528-4.144-17.024 0-6.421 1.419-12.059 4.256-16.912 2.838-4.928 6.72-8.699 11.648-11.312 4.928-2.613 10.454-3.92 16.576-3.92 6.123 0 11.648 1.307 16.576 3.92 4.928 2.613 8.811 6.384 11.648 11.312 2.838 4.853 4.256 10.49 4.256 16.912 0 6.421-1.456 12.096-4.368 17.024-2.837 4.853-6.757 8.587-11.76 11.2-4.928 2.613-10.453 3.92-16.576 3.92zm0-16.576c3.659 0 6.758-1.344 9.296-4.032 2.614-2.688 3.92-6.533 3.92-11.536 0-5.003-1.269-8.848-3.808-11.536-2.464-2.688-5.525-4.032-9.184-4.032-3.733 0-6.832 1.344-9.296 4.032-2.464 2.613-3.696 6.459-3.696 11.536 0 5.003 1.195 8.848 3.584 11.536 2.464 2.688 5.526 4.032 9.184 4.032z" fill="#fff"/><path d="M158.101 74.1c5.467 5.468 5.467 14.332 0 19.8L93.9 158.1c-5.468 5.467-14.332 5.467-19.8 0l-8.2-8.202c-5.468-5.467-5.468-14.331 0-19.799l36.2-36.2c5.468-5.468 5.468-14.332 0-19.8L65.9 37.9c-5.468-5.468-5.468-14.332 0-19.8l8.2-8.2c5.468-5.468 14.332-5.468 19.8 0L158.1 74.1z" fill="#3AA98E"/><path d="M30.6 114.101c5.468 5.467 14.332 5.467 19.8 0L71.1 93.4c5.468-5.468 5.468-14.332 0-19.8L50.4 52.9c-5.468-5.468-14.332-5.468-19.8 0L9.9 73.6c-5.468 5.468-5.468 14.332 0 19.8L30.6 114.1z" fill="#3AA98E"/></svg>