<svg width="615" height="168" viewBox="0 0 615 168" fill="none" xmlns="http://www.w3.org/2000/svg">
<path d="M251.109 123L224.677 88.28V123H205.525V44.376H224.677V78.872L250.885 44.376H273.397L242.933 82.904L274.517 123H251.109ZM312.067 123.896C305.944 123.896 300.419 122.589 295.491 119.976C290.637 117.363 286.792 113.629 283.955 108.776C281.192 103.923 279.811 98.248 279.811 91.752C279.811 85.3307 281.229 79.6933 284.067 74.84C286.904 69.912 290.787 66.1413 295.715 63.528C300.643 60.9147 306.168 59.608 312.291 59.608C318.413 59.608 323.939 60.9147 328.867 63.528C333.795 66.1413 337.677 69.912 340.515 74.84C343.352 79.6933 344.771 85.3307 344.771 91.752C344.771 98.1733 343.315 103.848 340.403 108.776C337.565 113.629 333.645 117.363 328.643 119.976C323.715 122.589 318.189 123.896 312.067 123.896ZM312.067 107.32C315.725 107.32 318.824 105.976 321.363 103.288C323.976 100.6 325.283 96.7547 325.283 91.752C325.283 86.7493 324.013 82.904 321.475 80.216C319.011 77.528 315.949 76.184 312.291 76.184C308.557 76.184 305.459 77.528 302.995 80.216C300.531 82.8293 299.299 86.6747 299.299 91.752C299.299 96.7547 300.493 100.6 302.883 103.288C305.347 105.976 308.408 107.32 312.067 107.32ZM434.675 59.832C442.44 59.832 448.6 62.184 453.155 66.888C457.784 71.592 460.099 78.1253 460.099 86.488V123H441.059V89.064C441.059 85.032 439.976 81.9333 437.811 79.768C435.72 77.528 432.808 76.408 429.075 76.408C425.342 76.408 422.392 77.528 420.227 79.768C418.136 81.9333 417.091 85.032 417.091 89.064V123H398.051V89.064C398.051 85.032 396.968 81.9333 394.803 79.768C392.712 77.528 389.8 76.408 386.067 76.408C382.334 76.408 379.384 77.528 377.219 79.768C375.128 81.9333 374.083 85.032 374.083 89.064V123H354.931V60.504H374.083V68.344C376.024 65.7307 378.563 63.6773 381.699 62.184C384.835 60.616 388.382 59.832 392.339 59.832C397.043 59.832 401.224 60.84 404.883 62.856C408.616 64.872 411.528 67.7467 413.619 71.48C415.784 68.0453 418.734 65.2453 422.467 63.08C426.2 60.9147 430.27 59.832 434.675 59.832ZM492.646 69.352C494.438 66.44 497.014 64.088 500.374 62.296C503.734 60.504 507.579 59.608 511.91 59.608C517.062 59.608 521.728 60.9147 525.91 63.528C530.091 66.1413 533.376 69.8747 535.766 74.728C538.23 79.5813 539.462 85.2187 539.462 91.64C539.462 98.0613 538.23 103.736 535.766 108.664C533.376 113.517 530.091 117.288 525.91 119.976C521.728 122.589 517.062 123.896 511.91 123.896C507.504 123.896 503.659 123.037 500.374 121.32C497.088 119.528 494.512 117.176 492.646 114.264V123H473.494V40.12H492.646V69.352ZM519.974 91.64C519.974 86.8613 518.63 83.128 515.942 80.44C513.328 77.6773 510.08 76.296 506.198 76.296C502.39 76.296 499.142 77.6773 496.454 80.44C493.84 83.2027 492.534 86.9733 492.534 91.752C492.534 96.5307 493.84 100.301 496.454 103.064C499.142 105.827 502.39 107.208 506.198 107.208C510.006 107.208 513.254 105.827 515.942 103.064C518.63 100.227 519.974 96.4187 519.974 91.64ZM577.957 123.896C571.835 123.896 566.309 122.589 561.381 119.976C556.528 117.363 552.683 113.629 549.845 108.776C547.083 103.923 545.701 98.248 545.701 91.752C545.701 85.3307 547.12 79.6933 549.957 74.84C552.795 69.912 556.677 66.1413 561.605 63.528C566.533 60.9147 572.059 59.608 578.181 59.608C584.304 59.608 589.829 60.9147 594.757 63.528C599.685 66.1413 603.568 69.912 606.405 74.84C609.243 79.6933 610.661 85.3307 610.661 91.752C610.661 98.1733 609.205 103.848 606.293 108.776C603.456 113.629 599.536 117.363 594.533 119.976C589.605 122.589 584.08 123.896 577.957 123.896ZM577.957 107.32C581.616 107.32 584.715 105.976 587.253 103.288C589.867 100.6 591.173 96.7547 591.173 91.752C591.173 86.7493 589.904 82.904 587.365 80.216C584.901 77.528 581.84 76.184 578.181 76.184C574.448 76.184 571.349 77.528 568.885 80.216C566.421 82.8293 565.189 86.6747 565.189 91.752C565.189 96.7547 566.384 100.6 568.773 103.288C571.237 105.976 574.299 107.32 577.957 107.32Z" fill="black"/>
<path d="M158.101 74.1005C163.568 79.5678 163.568 88.4322 158.101 93.8995L93.8995 158.101C88.4322 163.568 79.5678 163.568 74.1005 158.101L65.8995 149.899C60.4321 144.432 60.4322 135.568 65.8995 130.1L102.1 93.8995C107.568 88.4322 107.568 79.5678 102.1 74.1005L65.8995 37.8995C60.4321 32.4321 60.4321 23.5679 65.8995 18.1005L74.1005 9.89949C79.5679 4.43215 88.4322 4.43216 93.8995 9.8995L158.101 74.1005Z" fill="black"/>
<path d="M30.6005 114.101C36.0678 119.568 44.9322 119.568 50.3995 114.101L71.1005 93.3995C76.5678 87.9322 76.5678 79.0678 71.1005 73.6005L50.3995 52.8995C44.9322 47.4322 36.0678 47.4322 30.6005 52.8995L9.8995 73.6005C4.43216 79.0678 4.43216 87.9322 9.8995 93.3995L30.6005 114.101Z" fill="black"/>
</svg>
